<?xml version="1.0" encoding="UTF-8"?>
<svg width="76px" height="76px" viewBox="0 0 76 76" version="1.1" xmlns="http://www.w3.org/2000/svg" xmlns:xlink="http://www.w3.org/1999/xlink">
    <!-- Generator: Sketch 63 (92445) - https://sketch.com -->
    <title>画板</title>
    <desc>Created with Sketch.</desc>
    <g id="画板" stroke="none" stroke-width="1" fill="none" fill-rule="evenodd">
        <g id="编组-2备份-3">
            <circle id="椭圆形" fill="#E5EFF5" cx="38" cy="38" r="38"></circle>
            <g id="任务备份" transform="translate(18.399998, 18.399998)" fill-rule="nonzero">
                <rect id="矩形" fill="#000000" opacity="0" x="0" y="0" width="39.9999976" height="39.9999976"></rect>
                <path d="M27.6754341,1.56456193 L6.62687388,1.56456193 C4.43012412,1.56456193 2.64662432,3.34806174 2.64662432,5.5448115 L2.64662432,28.8336215 C2.64662432,33.9557459 6.81174886,38.115433 11.9284358,38.115433 L32.976996,38.115433 C35.1737458,38.115433 36.9572509,36.3319331 36.9572509,34.1351834 L36.9572509,10.8463734 C36.9626831,5.72968648 32.7975585,1.56456193 27.6754341,1.56456193 L27.6754341,1.56456193 Z M20.7752473,26.5118092 L12.2111858,26.5118092 C11.2433109,26.5118092 10.460311,25.7288093 10.460311,24.7609344 C10.460311,23.7930595 11.2433109,23.0046221 12.2111858,23.0046221 L20.7752473,23.0046221 C21.7431222,23.0046221 22.5261501,23.787622 22.5261501,24.7609344 C22.5315597,25.7233718 21.7431222,26.5118092 20.7752473,26.5118092 Z M27.3926841,16.4469978 L12.2111858,16.4469978 C11.2433109,16.4469978 10.460311,15.6639979 10.460311,14.696123 C10.460311,13.7282481 11.2433109,12.9452482 12.2111858,12.9452482 L27.3926841,12.9452482 C28.360559,12.9452482 29.1435589,13.7282481 29.1435589,14.696123 C29.1435589,15.6639979 28.360559,16.4469978 27.3926841,16.4469978 L27.3926841,16.4469978 Z" id="形状" fill="#C0D1D9"></path>
            </g>
        </g>
    </g>
</svg>